<?xml version="1.0"?><svg fill="#000000" xmlns="http://www.w3.org/2000/svg" viewBox="0 0 24 24" width="48px" height="48px">    <path d="M 8 4 L 8 6 L 7 6 L 7 8 L 6 8 L 6 10 L 5 10 L 5 12 L 4 12 L 4 14 L 10 14 L 10 16 L 9 16 L 9 17 L 9 18 L 8 18 L 8 20 L 9 20 L 9 19 L 10 19 L 10 18 L 11 18 L 11 17 L 12 17 L 12 16 L 13 16 L 13 15 L 14 15 L 14 14 L 15 14 L 15 13 L 16 13 L 16 12 L 17 12 L 17 11 L 18 11 L 18 10 L 19 10 L 19 9 L 16 9 L 16 8 L 17 8 L 17 7 L 18 7 L 18 6 L 19 6 L 19 5 L 20 5 L 20 4 L 8 4 z M 8 20 L 7 20 L 7 21 L 8 21 L 8 20 z M 9 6 L 16 6 L 16 7 L 15 7 L 15 8 L 14 8 L 14 9 L 13 9 L 13 10 L 12 10 L 12 11 L 13 11 L 13 12 L 14 12 L 14 11 L 15 11 L 15 12 L 14 12 L 14 13 L 13 13 L 13 12 L 12 12 L 12 11 L 11 11 L 11 12 L 10 12 L 10 11 L 9 11 L 9 12 L 8 12 L 8 11 L 7 11 L 7 10 L 8 10 L 8 8 L 9 8 L 9 6 z M 8 10 L 8 11 L 9 11 L 9 10 L 8 10 z M 10 11 L 11 11 L 11 10 L 10 10 L 10 11 z"/></svg>